<svg xmlns="http://www.w3.org/2000/svg" width="937" height="706.07" viewBox="0 0 937 706.07">
  <title>Ресурс 1</title>
  <g id="Слой_2" data-name="Слой 2">
    <g id="Слой_1-2" data-name="Слой 1">
      <path d="M442,.07H0c0,.5,0,1,0,1.5A138.82,138.82,0,0,0,22.37,77.36,337.41,337.41,0,0,1,75,258.47h0v.1A197.58,197.58,0,0,0,201.41,442.88a472.66,472.66,0,0,1,205.5,161.93,239.49,239.49,0,0,0,358.14,37.63v0A429.67,429.67,0,0,1,937,545.34V.07Z" fill="#9ca0e7"/>
      <path d="M58.34.07s24.66-9,58.66,175,107,203,221,260,82,147,229,188S937,445.75,937,445.75V.07Z" fill="#8389c6"/>
    </g>
  </g>
</svg>
