<svg xmlns="http://www.w3.org/2000/svg" xmlns:xlink="http://www.w3.org/1999/xlink" width="911" height="916.48" viewBox="0 0 911 916.48">
  <defs>
    <linearGradient id="Безымянный_градиент_20" data-name="Безымянный градиент 20" x1="105.37" y1="174.42" x2="939.32" y2="747.58" gradientUnits="userSpaceOnUse">
      <stop offset="0" stop-color="#6571ba"/>
      <stop offset="1" stop-color="#78549b"/>
    </linearGradient>
    <linearGradient id="Безымянный_градиент_19" data-name="Безымянный градиент 19" x1="130.92" y1="196.14" x2="928.63" y2="744.39" gradientUnits="userSpaceOnUse">
      <stop offset="0" stop-color="#848dd8"/>
      <stop offset="1" stop-color="#9b74ba"/>
    </linearGradient>
    <linearGradient id="Безымянный_градиент_37" data-name="Безымянный градиент 37" x1="172.11" y1="215.62" x2="920.8" y2="730.19" gradientUnits="userSpaceOnUse">
      <stop offset="0" stop-color="#a2a7f4"/>
      <stop offset="1" stop-color="#bb8fd8"/>
    </linearGradient>
    <linearGradient id="Безымянный_градиент_28" data-name="Безымянный градиент 28" x1="548.43" y1="744.36" x2="550.17" y2="570.15" gradientUnits="userSpaceOnUse">
      <stop offset="0" stop-color="#7062c4"/>
      <stop offset="0.52" stop-color="#9880ff"/>
    </linearGradient>
    <linearGradient id="Безымянный_градиент_28-2" x1="726.66" y1="752.46" x2="727.21" y2="697.04" xlink:href="#Безымянный_градиент_28"/>
    <linearGradient id="Безымянный_градиент_23" data-name="Безымянный градиент 23" x1="273.69" y1="688.88" x2="273.67" y2="677.56" gradientUnits="userSpaceOnUse">
      <stop offset="0" stop-color="#7062c4"/>
      <stop offset="1" stop-color="#9880ff"/>
    </linearGradient>
    <linearGradient id="Безымянный_градиент_23-2" x1="329.46" y1="744.66" x2="329.44" y2="733.33" xlink:href="#Безымянный_градиент_23"/>
    <linearGradient id="Безымянный_градиент_23-3" x1="302.1" y1="744.66" x2="302.08" y2="733.33" xlink:href="#Безымянный_градиент_23"/>
    <linearGradient id="Безымянный_градиент_23-4" x1="273.69" y1="744.66" x2="273.67" y2="733.33" xlink:href="#Безымянный_градиент_23"/>
    <linearGradient id="Безымянный_градиент_23-5" x1="329.46" y1="716.24" x2="329.44" y2="704.92" xlink:href="#Безымянный_градиент_23"/>
    <linearGradient id="Безымянный_градиент_23-6" x1="302.1" y1="716.24" x2="302.08" y2="704.92" xlink:href="#Безымянный_градиент_23"/>
    <linearGradient id="Безымянный_градиент_23-7" x1="273.69" y1="716.24" x2="273.67" y2="704.92" xlink:href="#Безымянный_градиент_23"/>
    <linearGradient id="Безымянный_градиент_23-8" x1="329.46" y1="688.88" x2="329.44" y2="677.56" xlink:href="#Безымянный_градиент_23"/>
    <linearGradient id="Безымянный_градиент_23-9" x1="302.1" y1="688.88" x2="302.08" y2="677.56" xlink:href="#Безымянный_градиент_23"/>
    <linearGradient id="Безымянный_градиент_23-10" x1="615.08" y1="670.96" x2="604.31" y2="665.41" xlink:href="#Безымянный_градиент_23"/>
    <linearGradient id="Безымянный_градиент_23-11" x1="643.5" y1="697.26" x2="632.72" y2="691.72" xlink:href="#Безымянный_градиент_23"/>
    <linearGradient id="Безымянный_градиент_23-12" x1="671.91" y1="697.26" x2="661.13" y2="691.72" xlink:href="#Безымянный_градиент_23"/>
    <linearGradient id="Безымянный_градиент_23-13" x1="700.32" y1="697.26" x2="689.55" y2="691.72" xlink:href="#Безымянный_градиент_23"/>
    <linearGradient id="Безымянный_градиент_23-14" x1="615.08" y1="697.26" x2="604.31" y2="691.72" xlink:href="#Безымянный_градиент_23"/>
    <linearGradient id="Безымянный_градиент_23-15" x1="643.5" y1="670.96" x2="632.72" y2="665.41" xlink:href="#Безымянный_градиент_23"/>
    <linearGradient id="Безымянный_градиент_23-16" x1="671.91" y1="670.96" x2="661.13" y2="665.41" xlink:href="#Безымянный_градиент_23"/>
    <linearGradient id="Безымянный_градиент_23-17" x1="701.38" y1="670.96" x2="690.6" y2="665.41" xlink:href="#Безымянный_градиент_23"/>
    <linearGradient id="Безымянный_градиент_23-18" x1="612.59" y1="724.58" x2="604.75" y2="715.34" xlink:href="#Безымянный_градиент_23"/>
    <linearGradient id="Безымянный_градиент_23-19" x1="612.59" y1="749.83" x2="604.75" y2="740.59" xlink:href="#Безымянный_градиент_23"/>
    <linearGradient id="Безымянный_градиент_23-20" x1="641.01" y1="749.83" x2="633.16" y2="740.59" xlink:href="#Безымянный_градиент_23"/>
    <linearGradient id="Безымянный_градиент_23-21" x1="669.42" y1="749.83" x2="661.57" y2="740.59" xlink:href="#Безымянный_градиент_23"/>
    <linearGradient id="Безымянный_градиент_23-22" x1="697.83" y1="749.83" x2="689.99" y2="740.59" xlink:href="#Безымянный_градиент_23"/>
    <linearGradient id="Безымянный_градиент_23-23" x1="641.01" y1="724.58" x2="633.16" y2="715.34" xlink:href="#Безымянный_градиент_23"/>
    <linearGradient id="Безымянный_градиент_23-24" x1="669.42" y1="724.58" x2="661.57" y2="715.34" xlink:href="#Безымянный_градиент_23"/>
    <linearGradient id="Безымянный_градиент_23-25" x1="697.83" y1="724.58" x2="689.99" y2="715.34" xlink:href="#Безымянный_градиент_23"/>
    <linearGradient id="Безымянный_градиент_23-26" x1="762.48" y1="529.05" x2="743.94" y2="529.07" xlink:href="#Безымянный_градиент_23"/>
    <linearGradient id="Безымянный_градиент_23-27" x1="808.78" y1="529.05" x2="790.24" y2="529.07" xlink:href="#Безымянный_градиент_23"/>
    <linearGradient id="Безымянный_градиент_23-28" x1="850.87" y1="529.05" x2="832.34" y2="529.07" xlink:href="#Безымянный_градиент_23"/>
    <linearGradient id="Безымянный_градиент_23-29" x1="762.48" y1="570.09" x2="743.94" y2="570.11" xlink:href="#Безымянный_градиент_23"/>
    <linearGradient id="Безымянный_градиент_23-30" x1="762.48" y1="610.08" x2="743.94" y2="610.1" xlink:href="#Безымянный_градиент_23"/>
    <linearGradient id="Безымянный_градиент_23-31" x1="762.48" y1="651.12" x2="743.94" y2="651.14" xlink:href="#Безымянный_градиент_23"/>
    <linearGradient id="Безымянный_градиент_23-32" x1="758.86" y1="697.69" x2="745.02" y2="685.35" xlink:href="#Безымянный_градиент_23"/>
    <linearGradient id="Безымянный_градиент_23-33" x1="758.86" y1="737.67" x2="745.02" y2="725.34" xlink:href="#Безымянный_градиент_23"/>
    <linearGradient id="Безымянный_градиент_23-34" x1="805.16" y1="737.67" x2="791.32" y2="725.34" xlink:href="#Безымянный_градиент_23"/>
    <linearGradient id="Безымянный_градиент_23-35" x1="847.26" y1="737.67" x2="833.42" y2="725.34" xlink:href="#Безымянный_градиент_23"/>
    <linearGradient id="Безымянный_градиент_23-36" x1="805.16" y1="697.69" x2="791.32" y2="685.35" xlink:href="#Безымянный_градиент_23"/>
    <linearGradient id="Безымянный_градиент_23-37" x1="847.26" y1="697.69" x2="833.42" y2="685.35" xlink:href="#Безымянный_градиент_23"/>
    <linearGradient id="Безымянный_градиент_23-38" x1="808.78" y1="651.12" x2="790.24" y2="651.14" xlink:href="#Безымянный_градиент_23"/>
    <linearGradient id="Безымянный_градиент_23-39" x1="850.87" y1="651.12" x2="832.34" y2="651.14" xlink:href="#Безымянный_градиент_23"/>
    <linearGradient id="Безымянный_градиент_23-40" x1="808.78" y1="610.08" x2="790.24" y2="610.1" xlink:href="#Безымянный_градиент_23"/>
    <linearGradient id="Безымянный_градиент_23-41" x1="850.87" y1="610.08" x2="832.34" y2="610.1" xlink:href="#Безымянный_градиент_23"/>
    <linearGradient id="Безымянный_градиент_23-42" x1="808.78" y1="570.09" x2="790.24" y2="570.11" xlink:href="#Безымянный_градиент_23"/>
    <linearGradient id="Безымянный_градиент_23-43" x1="850.87" y1="570.09" x2="832.34" y2="570.11" xlink:href="#Безымянный_градиент_23"/>
    <linearGradient id="Безымянный_градиент_23-44" x1="387.94" y1="963.41" x2="397.59" y2="963.41" gradientTransform="translate(161.23 -273.76)" xlink:href="#Безымянный_градиент_23"/>
    <linearGradient id="Безымянный_градиент_23-45" x1="387.94" y1="937.92" x2="397.59" y2="937.92" gradientTransform="translate(135.74 -248.27)" xlink:href="#Безымянный_градиент_23"/>
    <linearGradient id="Безымянный_градиент_23-46" x1="387.94" y1="912.43" x2="397.59" y2="912.43" gradientTransform="translate(110.25 -222.78)" xlink:href="#Безымянный_градиент_23"/>
    <linearGradient id="Безымянный_градиент_23-47" x1="387.94" y1="886.94" x2="397.59" y2="886.94" gradientTransform="translate(84.76 -197.29)" xlink:href="#Безымянный_градиент_23"/>
    <linearGradient id="Безымянный_градиент_23-48" x1="387.94" y1="861.45" x2="397.59" y2="861.45" gradientTransform="translate(59.27 -171.8)" xlink:href="#Безымянный_градиент_23"/>
    <linearGradient id="Безымянный_градиент_23-49" x1="370.56" y1="963.41" x2="380.21" y2="963.41" gradientTransform="translate(178.61 -256.38)" xlink:href="#Безымянный_градиент_23"/>
    <linearGradient id="Безымянный_градиент_23-50" x1="370.56" y1="937.92" x2="380.21" y2="937.92" gradientTransform="translate(153.12 -230.89)" xlink:href="#Безымянный_градиент_23"/>
    <linearGradient id="Безымянный_градиент_23-51" x1="370.56" y1="912.43" x2="380.21" y2="912.43" gradientTransform="translate(127.63 -205.4)" xlink:href="#Безымянный_градиент_23"/>
    <linearGradient id="Безымянный_градиент_23-52" x1="370.56" y1="886.94" x2="380.21" y2="886.94" gradientTransform="translate(102.14 -179.91)" xlink:href="#Безымянный_градиент_23"/>
    <linearGradient id="Безымянный_градиент_23-53" x1="370.56" y1="861.45" x2="380.21" y2="861.45" gradientTransform="translate(76.65 -154.42)" xlink:href="#Безымянный_градиент_23"/>
    <linearGradient id="Безымянный_градиент_23-54" x1="353.18" y1="963.41" x2="362.83" y2="963.41" gradientTransform="translate(195.99 -239)" xlink:href="#Безымянный_градиент_23"/>
    <linearGradient id="Безымянный_градиент_23-55" x1="353.18" y1="937.92" x2="362.83" y2="937.92" gradientTransform="translate(170.5 -213.51)" xlink:href="#Безымянный_градиент_23"/>
    <linearGradient id="Безымянный_градиент_23-56" x1="353.18" y1="912.43" x2="362.83" y2="912.43" gradientTransform="translate(145.01 -188.02)" xlink:href="#Безымянный_градиент_23"/>
    <linearGradient id="Безымянный_градиент_23-57" x1="353.18" y1="886.94" x2="362.83" y2="886.94" gradientTransform="translate(119.52 -162.53)" xlink:href="#Безымянный_градиент_23"/>
    <linearGradient id="Безымянный_градиент_23-58" x1="353.18" y1="861.45" x2="362.83" y2="861.45" gradientTransform="translate(94.03 -137.04)" xlink:href="#Безымянный_градиент_23"/>
    <linearGradient id="Безымянный_градиент_23-59" x1="335.8" y1="963.41" x2="345.45" y2="963.41" gradientTransform="translate(213.37 -221.62)" xlink:href="#Безымянный_градиент_23"/>
    <linearGradient id="Безымянный_градиент_23-60" x1="335.8" y1="937.92" x2="345.45" y2="937.92" gradientTransform="translate(187.88 -196.13)" xlink:href="#Безымянный_градиент_23"/>
    <linearGradient id="Безымянный_градиент_23-61" x1="335.8" y1="912.43" x2="345.45" y2="912.43" gradientTransform="translate(162.39 -170.64)" xlink:href="#Безымянный_градиент_23"/>
    <linearGradient id="Безымянный_градиент_23-62" x1="335.8" y1="886.94" x2="345.45" y2="886.94" gradientTransform="translate(136.9 -145.15)" xlink:href="#Безымянный_градиент_23"/>
    <linearGradient id="Безымянный_градиент_23-63" x1="335.8" y1="861.45" x2="345.45" y2="861.45" gradientTransform="translate(111.41 -119.66)" xlink:href="#Безымянный_градиент_23"/>
    <linearGradient id="Безымянный_градиент_2" data-name="Безымянный градиент 2" x1="437.59" y1="404.5" x2="583.43" y2="404.5" gradientUnits="userSpaceOnUse">
      <stop offset="0" stop-color="#5c3689"/>
      <stop offset="1" stop-color="#bb8fd8"/>
    </linearGradient>
    <linearGradient id="Безымянный_градиент_37-2" x1="537.9" y1="167.41" x2="630.15" y2="230.81" gradientTransform="translate(106.84 827.19) rotate(-45)" xlink:href="#Безымянный_градиент_37"/>
    <linearGradient id="Безымянный_градиент_37-3" x1="643.29" y1="417.72" x2="735.53" y2="481.11" gradientTransform="translate(336.29 -250.68) rotate(45)" xlink:href="#Безымянный_градиент_37"/>
    <linearGradient id="Безымянный_градиент_2-2" x1="503.49" y1="379.01" x2="582.41" y2="379.01" xlink:href="#Безымянный_градиент_2"/>
    <linearGradient id="Безымянный_градиент_37-4" x1="712.36" y1="641.37" x2="804.6" y2="704.77" gradientTransform="translate(-333.64 248.02) rotate(-22.5)" xlink:href="#Безымянный_градиент_37"/>
    <linearGradient id="Безымянный_градиент_2-3" x1="389.75" y1="436.94" x2="580.29" y2="436.94" xlink:href="#Безымянный_градиент_2"/>
    <linearGradient id="Безымянный_градиент_2-4" x1="385.11" y1="520.37" x2="575.66" y2="520.37" xlink:href="#Безымянный_градиент_2"/>
    <linearGradient id="Безымянный_градиент_37-5" x1="606.41" y1="441.89" x2="698.65" y2="505.28" gradientTransform="translate(1367.55 97.92) rotate(112.5)" xlink:href="#Безымянный_градиент_37"/>
    <linearGradient id="Безымянный_градиент_37-6" x1="853.52" y1="639.45" x2="945.76" y2="702.84" gradientTransform="translate(956.48 -649.27) rotate(67.5)" xlink:href="#Безымянный_градиент_37"/>
    <linearGradient id="Безымянный_градиент_37-7" x1="840.05" y1="516.52" x2="932.29" y2="579.92" gradientTransform="translate(15.48 -464.91) rotate(22.5)" xlink:href="#Безымянный_градиент_37"/>
    <linearGradient id="Безымянный_градиент_37-8" x1="839.76" y1="739.87" x2="932" y2="803.27" gradientTransform="translate(15.48 -464.91) rotate(22.5)" xlink:href="#Безымянный_градиент_37"/>
    <linearGradient id="Безымянный_градиент_37-9" x1="644.1" y1="205.52" x2="736.35" y2="268.92" gradientTransform="translate(336.29 -250.68) rotate(45)" xlink:href="#Безымянный_градиент_37"/>
    <linearGradient id="Безымянный_градиент_5" data-name="Безымянный градиент 5" x1="583.24" y1="272.98" x2="582.59" y2="323.94" gradientUnits="userSpaceOnUse">
      <stop offset="0" stop-color="#9a66b2"/>
      <stop offset="1" stop-color="#602e87"/>
    </linearGradient>
    <linearGradient id="Безымянный_градиент_7" data-name="Безымянный градиент 7" x1="561.91" y1="297.9" x2="603.94" y2="297.9" gradientUnits="userSpaceOnUse">
      <stop offset="0" stop-color="#d6a5ef"/>
      <stop offset="1" stop-color="#7d51a8"/>
    </linearGradient>
    <linearGradient id="Безымянный_градиент_5-2" x1="658.56" y1="289.2" x2="657.91" y2="340.16" xlink:href="#Безымянный_градиент_5"/>
    <linearGradient id="Безымянный_градиент_7-2" x1="637.22" y1="314.12" x2="679.25" y2="314.12" xlink:href="#Безымянный_градиент_7"/>
    <linearGradient id="Безымянный_градиент_5-3" x1="506.77" y1="291.52" x2="506.12" y2="342.47" xlink:href="#Безымянный_градиент_5"/>
    <linearGradient id="Безымянный_градиент_7-3" x1="485.44" y1="316.44" x2="527.47" y2="316.44" xlink:href="#Безымянный_градиент_7"/>
    <linearGradient id="Безымянный_градиент_5-4" x1="443.04" y1="334.39" x2="442.39" y2="385.35" xlink:href="#Безымянный_градиент_5"/>
    <linearGradient id="Безымянный_градиент_7-4" x1="421.71" y1="359.31" x2="463.74" y2="359.31" xlink:href="#Безымянный_градиент_7"/>
    <linearGradient id="Безымянный_градиент_5-5" x1="385.11" y1="398.12" x2="384.46" y2="449.07" xlink:href="#Безымянный_градиент_5"/>
    <linearGradient id="Безымянный_градиент_7-5" x1="363.78" y1="423.04" x2="405.81" y2="423.04" xlink:href="#Безымянный_градиент_7"/>
    <linearGradient id="Безымянный_градиент_5-6" x1="371.21" y1="475.75" x2="370.56" y2="526.7" xlink:href="#Безымянный_градиент_5"/>
    <linearGradient id="Безымянный_градиент_7-6" x1="349.87" y1="500.67" x2="391.9" y2="500.67" xlink:href="#Безымянный_градиент_7"/>
    <linearGradient id="Безымянный_градиент_5-7" x1="385.11" y1="556.85" x2="384.46" y2="607.81" xlink:href="#Безымянный_градиент_5"/>
    <linearGradient id="Безымянный_градиент_7-7" x1="363.78" y1="581.78" x2="405.81" y2="581.78" xlink:href="#Безымянный_градиент_7"/>
    <linearGradient id="Безымянный_градиент_5-8" x1="430.3" y1="626.37" x2="429.65" y2="677.33" xlink:href="#Безымянный_градиент_5"/>
    <linearGradient id="Безымянный_градиент_7-8" x1="408.97" y1="651.3" x2="451" y2="651.3" xlink:href="#Безымянный_градиент_7"/>
    <linearGradient id="Безымянный_градиент_5-9" x1="724.6" y1="334.39" x2="723.95" y2="385.35" xlink:href="#Безымянный_градиент_5"/>
    <linearGradient id="Безымянный_градиент_7-9" x1="703.27" y1="359.31" x2="745.3" y2="359.31" xlink:href="#Безымянный_градиент_7"/>
    <linearGradient id="Безымянный_градиент_5-10" x1="780.22" y1="398.12" x2="779.57" y2="449.07" xlink:href="#Безымянный_градиент_5"/>
    <linearGradient id="Безымянный_градиент_7-10" x1="758.89" y1="423.04" x2="800.91" y2="423.04" xlink:href="#Безымянный_градиент_7"/>
    <linearGradient id="Безымянный_градиент_5-11" x1="795.28" y1="475.75" x2="794.63" y2="526.7" xlink:href="#Безымянный_градиент_5"/>
    <linearGradient id="Безымянный_градиент_7-11" x1="773.95" y1="500.67" x2="815.98" y2="500.67" xlink:href="#Безымянный_градиент_7"/>
    <linearGradient id="Безымянный_градиент_5-12" x1="780.22" y1="556.85" x2="779.57" y2="607.81" xlink:href="#Безымянный_градиент_5"/>
    <linearGradient id="Безымянный_градиент_7-12" x1="758.89" y1="581.78" x2="800.91" y2="581.78" xlink:href="#Безымянный_градиент_7"/>
    <linearGradient id="Безымянный_градиент_5-13" x1="732.71" y1="626.37" x2="732.06" y2="677.33" xlink:href="#Безымянный_градиент_5"/>
    <linearGradient id="Безымянный_градиент_7-13" x1="711.38" y1="651.3" x2="753.41" y2="651.3" xlink:href="#Безымянный_градиент_7"/>
    <linearGradient id="Безымянный_градиент_5-14" x1="664.35" y1="677.36" x2="663.7" y2="728.31" xlink:href="#Безымянный_градиент_5"/>
    <linearGradient id="Безымянный_градиент_7-14" x1="643.02" y1="702.28" x2="685.05" y2="702.28" xlink:href="#Безымянный_градиент_7"/>
    <linearGradient id="Безымянный_градиент_5-15" x1="498.66" y1="677.36" x2="498.01" y2="728.31" xlink:href="#Безымянный_градиент_5"/>
    <linearGradient id="Безымянный_градиент_7-15" x1="477.33" y1="702.28" x2="519.36" y2="702.28" xlink:href="#Безымянный_градиент_7"/>
    <linearGradient id="Безымянный_градиент_5-16" x1="582.08" y1="688.94" x2="581.43" y2="739.9" xlink:href="#Безымянный_градиент_5"/>
    <linearGradient id="Безымянный_градиент_7-16" x1="560.75" y1="713.86" x2="602.78" y2="713.86" xlink:href="#Безымянный_градиент_7"/>
    <linearGradient id="Безымянный_градиент_17" data-name="Безымянный градиент 17" x1="560.57" y1="490.22" x2="555.16" y2="773.44" gradientTransform="matrix(0.81, 0.47, -0.55, 0.95, 392.08, -235.81)" gradientUnits="userSpaceOnUse">
      <stop offset="0"/>
      <stop offset="1" stop-color="#46246d"/>
    </linearGradient>
    <linearGradient id="Безымянный_градиент_17-2" x1="745.28" y1="442.92" x2="739.88" y2="725.51" gradientTransform="matrix(0.81, -0.47, 0.55, 0.95, -249.63, 414.59)" xlink:href="#Безымянный_градиент_17"/>
    <linearGradient id="Безымянный_градиент_37-10" x1="222" y1="765" x2="875.49" y2="765" xlink:href="#Безымянный_градиент_37"/>
    <radialGradient id="Безымянный_градиент_39" data-name="Безымянный градиент 39" cx="323" cy="251.48" r="202" gradientUnits="userSpaceOnUse">
      <stop offset="0.19" stop-color="#fff"/>
      <stop offset="0.4" stop-color="#ece7fb" stop-opacity="0.73"/>
      <stop offset="0.82" stop-color="#c9b9f5" stop-opacity="0.21"/>
      <stop offset="1" stop-color="#bba7f2" stop-opacity="0"/>
    </radialGradient>
    <linearGradient id="Безымянный_градиент_37-11" x1="271" y1="250.98" x2="380" y2="250.98" xlink:href="#Безымянный_градиент_37"/>
    <linearGradient id="Безымянный_градиент_23-64" x1="383.58" y1="747.13" x2="383.47" y2="738.05" xlink:href="#Безымянный_градиент_23"/>
    <linearGradient id="Безымянный_градиент_23-65" x1="399.36" y1="747.13" x2="399.26" y2="738.05" xlink:href="#Безымянный_градиент_23"/>
  </defs>
  <title>Ресурс 15</title>
  <g id="Слой_2" data-name="Слой 2">
    <g id="Слой_1-2" data-name="Слой 1">
      <path d="M911,817.69V81.39C860.84,56,777.27,57.91,733.92,58.92c-11.93.28-8.84,0-19.59.77a425.91,425.91,0,0,1-212.54-39,203.17,203.17,0,0,0-238.6,44.75h0A302.09,302.09,0,0,1,134.06,148,166.42,166.42,0,0,0,20.13,345.14a463.61,463.61,0,0,1-10,233.41A202.89,202.89,0,0,0,0,641.85C0,754,90.92,844.93,203.08,844.93c3.32,0,6.61-.09,9.89-.24h0a460.23,460.23,0,0,1,229.59,48.72A203.3,203.3,0,0,0,642,887.07a484.2,484.2,0,0,1,237.8-66.36v0A191.41,191.41,0,0,0,911,817.69Z" fill="url(#Безымянный_градиент_20)"/>
      <path d="M911,797.69V130.82C851.4,77.41,765,78.19,733.5,78.48a159.31,159.31,0,0,0-18.62.73,404.82,404.82,0,0,1-202-37.09A193.07,193.07,0,0,0,286.13,84.65h0a287.2,287.2,0,0,1-122.72,78.53A158.18,158.18,0,0,0,55.13,350.49a440.76,440.76,0,0,1-9.55,221.83A192.67,192.67,0,0,0,36,632.48c0,106.59,86.41,193,193,193,3.15,0,6.29-.08,9.4-.23h0a437.43,437.43,0,0,1,218.19,46.3,193.21,193.21,0,0,0,189.5-6,460.18,460.18,0,0,1,226-63.07h0A182,182,0,0,0,911,797.69Z" fill="url(#Безымянный_градиент_19)"/>
      <path d="M911,770.4V160.47a96.32,96.32,0,0,0-18-17c-44.46-32.09-124.84-30.31-170.08-29.31-10.21.23-7.53,0-17.19.68A373.68,373.68,0,0,1,519.28,80.61,178.21,178.21,0,0,0,310,119.86h0a265.11,265.11,0,0,1-113.27,72.5,146,146,0,0,0-100,172.91A406.69,406.69,0,0,1,87.92,570,178.25,178.25,0,0,0,257.23,803.71c2.91,0,5.81-.07,8.68-.21h0a403.85,403.85,0,0,1,201.41,42.74,178.35,178.35,0,0,0,174.92-5.56,424.73,424.73,0,0,1,208.62-58.22h0A167,167,0,0,0,911,770.4Z" fill="url(#Безымянный_градиент_37)"/>
      <path d="M231.27,759.05V667.52L303.11,627l68.36,40.56q0,29.67,0,59.34l62.07.12V678l35-19,77-2,37,19-.15-23.52L660,617.7l67.2,34.76q.59-77.06,1.16-154.11l69.52-60.25,68.36,60.25Q866,609,865.79,719.66q.23,19.11.43,38.23l-495.31.91Z" stroke="#000" stroke-miterlimit="10" fill="url(#Безымянный_градиент_28)"/>
      <path d="M727.12,654.25v0Z" stroke="#000" stroke-miterlimit="10" fill="url(#Безымянный_градиент_28-2)"/>
      <g>
        <rect x="267.19" y="674.47" width="12.98" height="17.03" stroke="#000" stroke-miterlimit="10" stroke-width="0.5" fill="url(#Безымянный_градиент_23)"/>
        <rect x="322.96" y="730.24" width="12.98" height="17.03" stroke="#000" stroke-miterlimit="10" stroke-width="0.5" fill="url(#Безымянный_градиент_23-2)"/>
        <rect x="295.6" y="730.24" width="12.98" height="17.03" stroke="#000" stroke-miterlimit="10" stroke-width="0.5" fill="url(#Безымянный_градиент_23-3)"/>
        <rect x="267.19" y="730.24" width="12.98" height="17.03" stroke="#000" stroke-miterlimit="10" stroke-width="0.5" fill="url(#Безымянный_градиент_23-4)"/>
        <rect x="322.96" y="701.83" width="12.98" height="17.03" stroke="#000" stroke-miterlimit="10" stroke-width="0.5" fill="url(#Безымянный_градиент_23-5)"/>
        <rect x="295.6" y="701.83" width="12.98" height="17.03" stroke="#000" stroke-miterlimit="10" stroke-width="0.5" fill="url(#Безымянный_градиент_23-6)"/>
        <rect x="267.19" y="701.83" width="12.98" height="17.03" stroke="#000" stroke-miterlimit="10" stroke-width="0.5" fill="url(#Безымянный_градиент_23-7)"/>
        <rect x="322.96" y="674.47" width="12.98" height="17.03" stroke="#000" stroke-miterlimit="10" stroke-width="0.5" fill="url(#Безымянный_градиент_23-8)"/>
        <rect x="295.6" y="674.47" width="12.98" height="17.03" stroke="#000" stroke-miterlimit="10" stroke-width="0.5" fill="url(#Безымянный_градиент_23-9)"/>
      </g>
      <g>
        <g>
          <rect x="602.04" y="659.41" width="12.12" height="15.91" stroke="#000" stroke-miterlimit="10" stroke-width="0.5" fill="url(#Безымянный_градиент_23-10)"/>
          <rect x="630.46" y="685.72" width="12.12" height="15.91" stroke="#000" stroke-miterlimit="10" stroke-width="0.5" fill="url(#Безымянный_градиент_23-11)"/>
          <rect x="658.87" y="685.72" width="12.12" height="15.91" stroke="#000" stroke-miterlimit="10" stroke-width="0.5" fill="url(#Безымянный_градиент_23-12)"/>
          <rect x="687.28" y="685.72" width="12.12" height="15.91" stroke="#000" stroke-miterlimit="10" stroke-width="0.5" fill="url(#Безымянный_градиент_23-13)"/>
          <rect x="602.04" y="685.72" width="12.12" height="15.91" stroke="#000" stroke-miterlimit="10" stroke-width="0.5" fill="url(#Безымянный_градиент_23-14)"/>
          <rect x="630.46" y="659.41" width="12.12" height="15.91" stroke="#000" stroke-miterlimit="10" stroke-width="0.5" fill="url(#Безымянный_градиент_23-15)"/>
          <rect x="658.87" y="659.41" width="12.12" height="15.91" stroke="#000" stroke-miterlimit="10" stroke-width="0.5" fill="url(#Безымянный_градиент_23-16)"/>
          <rect x="688.34" y="659.41" width="12.12" height="15.91" stroke="#000" stroke-miterlimit="10" stroke-width="0.5" fill="url(#Безымянный_градиент_23-17)"/>
        </g>
        <g>
          <rect x="602.04" y="711.33" width="12.12" height="15.91" stroke="#000" stroke-miterlimit="10" stroke-width="0.5" fill="url(#Безымянный_градиент_23-18)"/>
          <rect x="602.04" y="736.59" width="12.12" height="15.91" stroke="#000" stroke-miterlimit="10" stroke-width="0.5" fill="url(#Безымянный_градиент_23-19)"/>
          <rect x="630.46" y="736.59" width="12.12" height="15.91" stroke="#000" stroke-miterlimit="10" stroke-width="0.5" fill="url(#Безымянный_градиент_23-20)"/>
          <rect x="658.87" y="736.59" width="12.12" height="15.91" stroke="#000" stroke-miterlimit="10" stroke-width="0.5" fill="url(#Безымянный_градиент_23-21)"/>
          <rect x="687.28" y="736.59" width="12.12" height="15.91" stroke="#000" stroke-miterlimit="10" stroke-width="0.5" fill="url(#Безымянный_градиент_23-22)"/>
          <rect x="630.46" y="711.33" width="12.12" height="15.91" stroke="#000" stroke-miterlimit="10" stroke-width="0.5" fill="url(#Безымянный_градиент_23-23)"/>
          <rect x="658.87" y="711.33" width="12.12" height="15.91" stroke="#000" stroke-miterlimit="10" stroke-width="0.5" fill="url(#Безымянный_градиент_23-24)"/>
          <rect x="687.28" y="711.33" width="12.12" height="15.91" stroke="#000" stroke-miterlimit="10" stroke-width="0.5" fill="url(#Безымянный_градиент_23-25)"/>
        </g>
      </g>
      <rect x="440" y="676.73" width="141" height="0.5"/>
      <rect x="583" y="652.73" width="141" height="0.5"/>
      <rect x="728" y="498.11" width="138" height="0.75"/>
      <g>
        <rect x="743.4" y="516.89" width="18.54" height="24.33" stroke="#000" stroke-miterlimit="10" fill="url(#Безымянный_градиент_23-26)"/>
        <rect x="789.7" y="516.89" width="18.54" height="24.33" stroke="#000" stroke-miterlimit="10" fill="url(#Безымянный_градиент_23-27)"/>
        <rect x="831.8" y="516.89" width="18.54" height="24.33" stroke="#000" stroke-miterlimit="10" fill="url(#Безымянный_градиент_23-28)"/>
        <rect x="743.4" y="557.93" width="18.54" height="24.33" stroke="#000" stroke-miterlimit="10" fill="url(#Безымянный_градиент_23-29)"/>
        <rect x="743.4" y="597.92" width="18.54" height="24.33" stroke="#000" stroke-miterlimit="10" fill="url(#Безымянный_градиент_23-30)"/>
        <rect x="743.4" y="638.96" width="18.54" height="24.33" stroke="#000" stroke-miterlimit="10" fill="url(#Безымянный_градиент_23-31)"/>
        <rect x="743.4" y="680" width="18.54" height="24.33" stroke="#000" stroke-miterlimit="10" fill="url(#Безымянный_градиент_23-32)"/>
        <rect x="743.4" y="719.99" width="18.54" height="24.33" stroke="#000" stroke-miterlimit="10" fill="url(#Безымянный_градиент_23-33)"/>
        <rect x="789.7" y="719.99" width="18.54" height="24.33" stroke="#000" stroke-miterlimit="10" fill="url(#Безымянный_градиент_23-34)"/>
        <rect x="831.8" y="719.99" width="18.54" height="24.33" stroke="#000" stroke-miterlimit="10" fill="url(#Безымянный_градиент_23-35)"/>
        <rect x="789.7" y="680" width="18.54" height="24.33" stroke="#000" stroke-miterlimit="10" fill="url(#Безымянный_градиент_23-36)"/>
        <rect x="831.8" y="680" width="18.54" height="24.33" stroke="#000" stroke-miterlimit="10" fill="url(#Безымянный_градиент_23-37)"/>
        <rect x="789.7" y="638.96" width="18.54" height="24.33" stroke="#000" stroke-miterlimit="10" fill="url(#Безымянный_градиент_23-38)"/>
        <rect x="831.8" y="638.96" width="18.54" height="24.33" stroke="#000" stroke-miterlimit="10" fill="url(#Безымянный_градиент_23-39)"/>
        <rect x="789.7" y="597.92" width="18.54" height="24.33" stroke="#000" stroke-miterlimit="10" fill="url(#Безымянный_градиент_23-40)"/>
        <rect x="831.8" y="597.92" width="18.54" height="24.33" stroke="#000" stroke-miterlimit="10" fill="url(#Безымянный_градиент_23-41)"/>
        <rect x="789.7" y="557.93" width="18.54" height="24.33" stroke="#000" stroke-miterlimit="10" fill="url(#Безымянный_градиент_23-42)"/>
        <rect x="831.8" y="557.93" width="18.54" height="24.33" stroke="#000" stroke-miterlimit="10" fill="url(#Безымянный_градиент_23-43)"/>
      </g>
      <g>
        <rect x="549.17" y="683.32" width="9.66" height="12.67" transform="translate(-135.66 1243.65) rotate(-90)" stroke="#000" stroke-miterlimit="10" stroke-width="0.5" fill="url(#Безымянный_градиент_23-44)"/>
        <rect x="523.68" y="683.32" width="9.66" height="12.67" transform="translate(-161.15 1218.16) rotate(-90)" stroke="#000" stroke-miterlimit="10" stroke-width="0.5" fill="url(#Безымянный_градиент_23-45)"/>
        <rect x="498.19" y="683.32" width="9.66" height="12.67" transform="translate(-186.64 1192.67) rotate(-90)" stroke="#000" stroke-miterlimit="10" stroke-width="0.5" fill="url(#Безымянный_градиент_23-46)"/>
        <rect x="472.7" y="683.32" width="9.66" height="12.67" transform="translate(-212.13 1167.18) rotate(-90)" stroke="#000" stroke-miterlimit="10" stroke-width="0.5" fill="url(#Безымянный_градиент_23-47)"/>
        <rect x="447.2" y="683.32" width="9.66" height="12.67" transform="translate(-237.62 1141.69) rotate(-90)" stroke="#000" stroke-miterlimit="10" stroke-width="0.5" fill="url(#Безымянный_градиент_23-48)"/>
        <rect x="549.17" y="700.7" width="9.66" height="12.67" transform="translate(-153.04 1261.03) rotate(-90)" stroke="#000" stroke-miterlimit="10" stroke-width="0.5" fill="url(#Безымянный_градиент_23-49)"/>
        <rect x="523.68" y="700.7" width="9.66" height="12.67" transform="translate(-178.53 1235.54) rotate(-90)" stroke="#000" stroke-miterlimit="10" stroke-width="0.5" fill="url(#Безымянный_градиент_23-50)"/>
        <rect x="498.19" y="700.7" width="9.66" height="12.67" transform="translate(-204.02 1210.05) rotate(-90)" stroke="#000" stroke-miterlimit="10" stroke-width="0.5" fill="url(#Безымянный_градиент_23-51)"/>
        <rect x="472.7" y="700.7" width="9.66" height="12.67" transform="translate(-229.51 1184.56) rotate(-90)" stroke="#000" stroke-miterlimit="10" stroke-width="0.5" fill="url(#Безымянный_градиент_23-52)"/>
        <rect x="447.2" y="700.7" width="9.66" height="12.67" transform="translate(-255 1159.07) rotate(-90)" stroke="#000" stroke-miterlimit="10" stroke-width="0.5" fill="url(#Безымянный_градиент_23-53)"/>
        <rect x="549.17" y="718.08" width="9.66" height="12.67" transform="translate(-170.42 1278.41) rotate(-90)" stroke="#000" stroke-miterlimit="10" stroke-width="0.5" fill="url(#Безымянный_градиент_23-54)"/>
        <rect x="523.68" y="718.08" width="9.66" height="12.67" transform="translate(-195.91 1252.92) rotate(-90)" stroke="#000" stroke-miterlimit="10" stroke-width="0.5" fill="url(#Безымянный_градиент_23-55)"/>
        <rect x="498.19" y="718.08" width="9.66" height="12.67" transform="translate(-221.4 1227.43) rotate(-90)" stroke="#000" stroke-miterlimit="10" stroke-width="0.5" fill="url(#Безымянный_градиент_23-56)"/>
        <rect x="472.7" y="718.08" width="9.66" height="12.67" transform="translate(-246.89 1201.94) rotate(-90)" stroke="#000" stroke-miterlimit="10" stroke-width="0.5" fill="url(#Безымянный_градиент_23-57)"/>
        <rect x="447.2" y="718.08" width="9.66" height="12.67" transform="translate(-272.38 1176.45) rotate(-90)" stroke="#000" stroke-miterlimit="10" stroke-width="0.5" fill="url(#Безымянный_градиент_23-58)"/>
        <rect x="549.17" y="735.46" width="9.66" height="12.67" transform="translate(-187.8 1295.79) rotate(-90)" stroke="#000" stroke-miterlimit="10" stroke-width="0.5" fill="url(#Безымянный_градиент_23-59)"/>
        <rect x="523.68" y="735.46" width="9.66" height="12.67" transform="translate(-213.29 1270.3) rotate(-90)" stroke="#000" stroke-miterlimit="10" stroke-width="0.5" fill="url(#Безымянный_градиент_23-60)"/>
        <rect x="498.19" y="735.46" width="9.66" height="12.67" transform="translate(-238.78 1244.81) rotate(-90)" stroke="#000" stroke-miterlimit="10" stroke-width="0.5" fill="url(#Безымянный_градиент_23-61)"/>
        <rect x="472.7" y="735.46" width="9.66" height="12.67" transform="translate(-264.27 1219.32) rotate(-90)" stroke="#000" stroke-miterlimit="10" stroke-width="0.5" fill="url(#Безымянный_градиент_23-62)"/>
        <rect x="447.2" y="735.46" width="9.66" height="12.67" transform="translate(-289.76 1193.83) rotate(-90)" stroke="#000" stroke-miterlimit="10" stroke-width="0.5" fill="url(#Безымянный_градиент_23-63)"/>
      </g>
      <circle cx="582.93" cy="483.87" r="212.04" fill="none" stroke="#000" stroke-miterlimit="10" stroke-width="10"/>
      <circle cx="582.93" cy="478.08" r="18.54"/>
      <path d="M437.59,331.58,583.43,477.42Z" stroke="#000" stroke-miterlimit="10" stroke-width="7" fill="url(#Безымянный_градиент_2)"/>
      <path d="M587.06,482.21,732.89,628Z" stroke="#000" stroke-miterlimit="10" stroke-width="7" fill="url(#Безымянный_градиент_37-2)"/>
      <path d="M578.79,481.05,433,626.89Z" stroke="#000" stroke-miterlimit="10" stroke-width="7" fill="url(#Безымянный_градиент_37-3)"/>
      <path d="M503.49,283.74l78.92,190.54Z" stroke="#000" stroke-miterlimit="10" stroke-width="7" fill="url(#Безымянный_градиент_2-2)"/>
      <path d="M584.6,484.19l78.92,190.54Z" stroke="#000" stroke-miterlimit="10" stroke-width="7" fill="url(#Безымянный_градиент_37-4)"/>
      <path d="M389.75,397.48l190.54,78.93Z" stroke="#000" stroke-miterlimit="10" stroke-width="7" fill="url(#Безымянный_градиент_2-3)"/>
      <path d="M385.11,559.83,575.66,480.9Z" stroke="#000" stroke-miterlimit="10" stroke-width="7" fill="url(#Безымянный_градиент_2-4)"/>
      <path d="M776.1,558.67,585.56,479.75Z" stroke="#000" stroke-miterlimit="10" stroke-width="7" fill="url(#Безымянный_градиент_37-5)"/>
      <path d="M776.11,398.64,585.56,477.56Z" stroke="#000" stroke-miterlimit="10" stroke-width="7" fill="url(#Безымянный_градиент_37-6)"/>
      <path d="M663.52,284.9,584.6,475.44Z" stroke="#000" stroke-miterlimit="10" stroke-width="7" fill="url(#Безымянный_градиент_37-7)"/>
      <path d="M577.78,491.14,498.85,681.68Z" stroke="#000" stroke-miterlimit="10" stroke-width="7" fill="url(#Безымянный_градиент_37-8)"/>
      <rect x="478" y="369.48" width="207" height="7" transform="translate(208.52 954.48) rotate(-90)"/>
      <path d="M729.42,331.58,583.58,477.42Z" stroke="#000" stroke-miterlimit="10" stroke-width="7" fill="url(#Безымянный_градиент_37-9)"/>
      <rect x="560.91" y="270.67" width="44.03" height="54.46" rx="16.49" stroke="#000" stroke-miterlimit="10" stroke-width="2" fill="url(#Безымянный_градиент_5)"/>
      <circle cx="584.37" cy="479.52" r="76.76" fill="none" stroke="#000" stroke-miterlimit="10" stroke-width="5"/>
      <circle cx="582.64" cy="478.94" r="87.77" fill="none" stroke="#000" stroke-miterlimit="10" stroke-width="5"/>
      <rect x="561.91" y="289.21" width="42.03" height="17.38" stroke="#000" stroke-miterlimit="10" fill="url(#Безымянный_градиент_7)"/>
      <rect x="636.22" y="286.89" width="44.03" height="54.46" rx="16.49" stroke="#000" stroke-miterlimit="10" stroke-width="2" fill="url(#Безымянный_градиент_5-2)"/>
      <rect x="637.22" y="305.43" width="42.03" height="17.38" stroke="#000" stroke-miterlimit="10" fill="url(#Безымянный_градиент_7-2)"/>
      <rect x="484.44" y="289.21" width="44.03" height="54.46" rx="16.49" stroke="#000" stroke-miterlimit="10" stroke-width="2" fill="url(#Безымянный_градиент_5-3)"/>
      <rect x="485.44" y="307.75" width="42.03" height="17.38" stroke="#000" stroke-miterlimit="10" fill="url(#Безымянный_градиент_7-3)"/>
      <rect x="420.71" y="332.08" width="44.03" height="54.46" rx="16.49" stroke="#000" stroke-miterlimit="10" stroke-width="2" fill="url(#Безымянный_градиент_5-4)"/>
      <rect x="421.71" y="350.62" width="42.03" height="17.38" stroke="#000" stroke-miterlimit="10" fill="url(#Безымянный_градиент_7-4)"/>
      <rect x="362.78" y="395.81" width="44.03" height="54.46" rx="16.49" stroke="#000" stroke-miterlimit="10" stroke-width="2" fill="url(#Безымянный_градиент_5-5)"/>
      <rect x="371" y="473.48" width="207" height="7"/>
      <rect x="478" y="600.48" width="207" height="7" transform="translate(-22.48 1185.48) rotate(-90)"/>
      <rect x="585" y="473.48" width="207" height="7"/>
      <rect x="363.78" y="414.35" width="42.03" height="17.38" stroke="#000" stroke-miterlimit="10" fill="url(#Безымянный_градиент_7-5)"/>
      <rect x="348.87" y="473.44" width="44.03" height="54.46" rx="16.49" stroke="#000" stroke-miterlimit="10" stroke-width="2" fill="url(#Безымянный_градиент_5-6)"/>
      <rect x="349.87" y="491.98" width="42.03" height="17.38" stroke="#000" stroke-miterlimit="10" fill="url(#Безымянный_градиент_7-6)"/>
      <rect x="362.78" y="554.55" width="44.03" height="54.46" rx="16.49" stroke="#000" stroke-miterlimit="10" stroke-width="2" fill="url(#Безымянный_градиент_5-7)"/>
      <rect x="363.78" y="573.09" width="42.03" height="17.38" stroke="#000" stroke-miterlimit="10" fill="url(#Безымянный_градиент_7-7)"/>
      <rect x="407.97" y="624.07" width="44.03" height="54.46" rx="16.49" stroke="#000" stroke-miterlimit="10" stroke-width="2" fill="url(#Безымянный_градиент_5-8)"/>
      <rect x="408.97" y="642.61" width="42.03" height="17.38" stroke="#000" stroke-miterlimit="10" fill="url(#Безымянный_градиент_7-8)"/>
      <rect x="702.27" y="332.08" width="44.03" height="54.46" rx="16.49" stroke="#000" stroke-miterlimit="10" stroke-width="2" fill="url(#Безымянный_градиент_5-9)"/>
      <rect x="703.27" y="350.62" width="42.03" height="17.38" stroke="#000" stroke-miterlimit="10" fill="url(#Безымянный_градиент_7-9)"/>
      <rect x="757.88" y="395.81" width="44.03" height="54.46" rx="16.49" stroke="#000" stroke-miterlimit="10" stroke-width="2" fill="url(#Безымянный_градиент_5-10)"/>
      <rect x="758.89" y="414.35" width="42.03" height="17.38" stroke="#000" stroke-miterlimit="10" fill="url(#Безымянный_градиент_7-10)"/>
      <rect x="772.95" y="473.44" width="44.03" height="54.46" rx="16.49" stroke="#000" stroke-miterlimit="10" stroke-width="2" fill="url(#Безымянный_градиент_5-11)"/>
      <rect x="773.95" y="491.98" width="42.03" height="17.38" stroke="#000" stroke-miterlimit="10" fill="url(#Безымянный_градиент_7-11)"/>
      <rect x="757.88" y="554.55" width="44.03" height="54.46" rx="16.49" stroke="#000" stroke-miterlimit="10" stroke-width="2" fill="url(#Безымянный_градиент_5-12)"/>
      <rect x="758.89" y="573.09" width="42.03" height="17.38" stroke="#000" stroke-miterlimit="10" fill="url(#Безымянный_градиент_7-12)"/>
      <rect x="710.38" y="624.07" width="44.03" height="54.46" rx="16.49" stroke="#000" stroke-miterlimit="10" stroke-width="2" fill="url(#Безымянный_градиент_5-13)"/>
      <rect x="711.38" y="642.61" width="42.03" height="17.38" stroke="#000" stroke-miterlimit="10" fill="url(#Безымянный_градиент_7-13)"/>
      <rect x="642.02" y="675.05" width="44.03" height="54.46" rx="16.49" stroke="#000" stroke-miterlimit="10" stroke-width="2" fill="url(#Безымянный_градиент_5-14)"/>
      <rect x="643.02" y="693.59" width="42.03" height="17.38" stroke="#000" stroke-miterlimit="10" fill="url(#Безымянный_градиент_7-14)"/>
      <rect x="566.5" y="743.98" width="32" height="1" transform="translate(-161.98 1326.98) rotate(-90)"/>
      <rect x="476.33" y="675.05" width="44.03" height="54.46" rx="16.49" stroke="#000" stroke-miterlimit="10" stroke-width="2" fill="url(#Безымянный_градиент_5-15)"/>
      <rect x="477.33" y="693.59" width="42.03" height="17.38" stroke="#000" stroke-miterlimit="10" fill="url(#Безымянный_градиент_7-15)"/>
      <rect x="559.75" y="686.64" width="44.03" height="54.46" rx="16.49" stroke="#000" stroke-miterlimit="10" stroke-width="2" fill="url(#Безымянный_градиент_5-16)"/>
      <rect x="560.75" y="705.17" width="42.03" height="17.38" stroke="#000" stroke-miterlimit="10" fill="url(#Безымянный_градиент_7-16)"/>
      <path d="M588.76,489.42l-24.27-14L406.75,748.63a40.88,40.88,0,0,1-2.26,4,22,22,0,0,1-3.48,4.63c-1.47,1.42-2.42,1.78-2.31,2.32.19,1,3.67,1.1,4.63,1.16,6.59.41,21.66.15,29,0Z" stroke="#000" stroke-miterlimit="10" stroke-width="2" fill="url(#Безымянный_градиент_17)"/>
      <path d="M599,476.57l-24.27,14L730.08,760.79c27.6,1.66,34.62,1.07,34.76,0,0-.34-.65-.53-2.32-2.32a29,29,0,0,1-3.48-4.63,43,43,0,0,1-2.27-4.05Z" stroke="#000" stroke-miterlimit="10" stroke-width="2" fill="url(#Безымянный_градиент_17-2)"/>
      <rect x="222" y="761.53" width="653.49" height="6.95" stroke="#000" stroke-miterlimit="10" stroke-width="7" fill="url(#Безымянный_градиент_37-10)"/>
      <circle cx="323" cy="251.48" r="202" fill="url(#Безымянный_градиент_39)"/>
      <rect x="271" y="196.48" width="109" height="109" rx="54.5" fill="url(#Безымянный_градиент_37-11)"/>
      <g>
        <path d="M304.12,254.31H288.4v14.58h17.52v4.38H283.18V232.83H305v4.38H288.4V250h15.72Z" fill="#fff"/>
        <path d="M334.84,273.27l-5.16-8.94c-2.1-3.42-3.42-5.64-4.68-8h-.12c-1.14,2.34-2.28,4.5-4.38,8l-4.86,8.88h-6L322,252.81l-11.88-20h6.06l5.34,9.48c1.5,2.64,2.64,4.68,3.72,6.84h.18c1.14-2.4,2.16-4.26,3.66-6.84l5.52-9.48h6l-12.3,19.68,12.6,20.76Z" fill="#fff"/>
        <path d="M347,233.31a60.5,60.5,0,0,1,10-.78c5.16,0,8.94,1.2,11.34,3.36a10.87,10.87,0,0,1,3.54,8.46,11.9,11.9,0,0,1-3.12,8.64c-2.76,2.94-7.26,4.44-12.36,4.44a18,18,0,0,1-4.2-.36v16.2H347Zm5.22,19.5a17.51,17.51,0,0,0,4.32.42c6.3,0,10.14-3.06,10.14-8.64,0-5.34-3.78-7.92-9.54-7.92a21.91,21.91,0,0,0-4.92.42Z" fill="#fff"/>
      </g>
      <circle cx="383.53" cy="743.17" r="4.74" stroke="#000" stroke-miterlimit="10" stroke-width="0.25" fill="url(#Безымянный_градиент_23-64)"/>
      <circle cx="399.32" cy="743.17" r="4.74" stroke="#000" stroke-miterlimit="10" stroke-width="0.25" fill="url(#Безымянный_градиент_23-65)"/>
      <rect x="231" y="667.73" width="141" height="0.5"/>
      <rect x="355.4" y="742.01" width="32" height="0.94" transform="translate(-371.08 1113.88) rotate(-90)"/>
    </g>
  </g>
</svg>
