<svg xmlns="http://www.w3.org/2000/svg" xmlns:xlink="http://www.w3.org/1999/xlink" width="109" height="160" viewBox="0 0 109 160">
  <defs>
    <linearGradient id="Безымянный_градиент_37" data-name="Безымянный градиент 37" y1="105.5" x2="109" y2="105.5" gradientUnits="userSpaceOnUse">
      <stop offset="0" stop-color="#a2a7f4"/>
      <stop offset="1" stop-color="#bb8fd8"/>
    </linearGradient>
    <linearGradient id="Безымянный_градиент_37-2" x1="42.22" y1="23.5" x2="68.33" y2="23.5" xlink:href="#Безымянный_градиент_37"/>
  </defs>
  <title>Ресурс 8</title>
  <g id="Слой_2" data-name="Слой 2">
    <g id="Слой_1-2" data-name="Слой 1">
      <rect y="51" width="109" height="109" rx="54.5" fill="url(#Безымянный_градиент_37)"/>
      <g>
        <path d="M33.12,108.83H17.4v14.58H34.92v4.38H12.18V87.35H34v4.38H17.4v12.78H33.12Z" fill="#fff"/>
        <path d="M63.84,127.79l-5.16-8.94c-2.1-3.42-3.42-5.64-4.68-8h-.12c-1.14,2.34-2.28,4.5-4.38,8l-4.86,8.88h-6L51,107.33l-11.88-20h6.06l5.34,9.48c1.5,2.64,2.64,4.68,3.72,6.84h.18c1.14-2.4,2.16-4.26,3.66-6.84l5.52-9.48h6L57.3,107l12.6,20.76Z" fill="#fff"/>
        <path d="M76,87.83a60.5,60.5,0,0,1,10-.78c5.16,0,8.94,1.2,11.34,3.36a10.87,10.87,0,0,1,3.54,8.46,11.9,11.9,0,0,1-3.12,8.64C95,110.45,90.48,112,85.38,112a18,18,0,0,1-4.2-.36v16.2H76Zm5.22,19.5a17.51,17.51,0,0,0,4.32.42c6.3,0,10.14-3.06,10.14-8.64,0-5.34-3.78-7.92-9.54-7.92a21.91,21.91,0,0,0-4.92.42Z" fill="#fff"/>
      </g>
      <path d="M63.11,47H47.44V15.67H42.22Q48.75,7.82,55.28,0l13,15.67H63.11Z" fill="url(#Безымянный_градиент_37-2)"/>
      <path d="M99.33,56H85V27.33H80.22L92.17,13l11.94,14.33H99.33Z" fill="#bb8fd8"/>
      <path d="M23.33,57H9V28.33H4.22L16.17,14,28.11,28.33H23.33Z" fill="#a2a7f4"/>
    </g>
  </g>
</svg>
