<svg xmlns="http://www.w3.org/2000/svg" width="32.47" height="48.04" viewBox="0 0 32.47 48.04">
  <g id="Layer_1" transform="translate(-8.765 -0.765)">
    <path id="Path_13" data-name="Path 13" d="M38.594,13.356l.468-4.477L34.95,7.05,33.121,2.938l-4.477.467L25,.765,21.356,3.406l-4.477-.468L15.05,7.05,10.938,8.879l.467,4.477L8.765,17l2.641,3.644-.468,4.477,4.113,1.829L16,29.085v19.72l9-5.625,9,5.625V29.085l.95-2.135,4.112-1.829L38.6,20.644,41.235,17ZM25,40.821,18,45.2V30.945l3.356-.35L25,33.235l3.644-2.641L32,30.945v14.25ZM36.922,23.883l-3.487,1.552-1.552,3.487-3.793-.4L25,30.765l-3.09-2.239-3.793.4-1.552-3.487-3.487-1.552.4-3.793L11.235,17l2.239-3.09-.4-3.793,3.487-1.552,1.552-3.487,3.793.4L25,3.235l3.09,2.239,3.793-.4,1.552,3.487,3.487,1.552-.4,3.793L38.765,17l-2.239,3.09Z"/>
    <path id="Path_14" data-name="Path 14" d="M25,7A10,10,0,1,0,35,17,10.011,10.011,0,0,0,25,7Zm0,18a8,8,0,1,1,8-8A8.009,8.009,0,0,1,25,25Z"/>
  </g>
</svg>
