<svg xmlns="http://www.w3.org/2000/svg" width="35.585" height="24.762" viewBox="0 0 35.585 24.762">
  <g id="_x32_34_x2C__tutorials_x2C__video_x2C__media_x2C__online_x2C__education" transform="translate(-135.27 -7.303)">
    <g id="Group_2" data-name="Group 2" transform="translate(26.002 26.184)">
      <path id="Path_11" data-name="Path 11" d="M148.465,24.5v-8.98a1.148,1.148,0,0,1,.127-.539,1.2,1.2,0,0,1,1.608-.539l8.989,4.5a1.151,1.151,0,0,1,.529.53,1.189,1.189,0,0,1-.529,1.608L150.3,25.517a1.176,1.176,0,0,1-.627.186A1.2,1.2,0,0,1,148.465,24.5Zm2.4-7.039v5.1l5.1-2.549Zm17.576-7.744H137.681V29.654h30.761ZM136.476,7.3h33.173a1.205,1.205,0,0,1,1.206,1.206V30.86a1.205,1.205,0,0,1-1.206,1.206H136.476a1.211,1.211,0,0,1-1.205-1.206V8.509A1.211,1.211,0,0,1,136.476,7.3Z" transform="translate(-26.002 -26.184)" fill-rule="evenodd"/>
    </g>
  </g>
</svg>
