<svg xmlns="http://www.w3.org/2000/svg" width="227.6" height="227.5" viewBox="0 0 227.6 227.5">
  <g id="iconfinder_User_Interface-23_2044265" transform="translate(-142.2 -142.2)">
    <circle id="Ellipse_7" data-name="Ellipse 7" cx="57" cy="57" r="57" transform="translate(199 199)" stroke-width="10" stroke="#000" stroke-linecap="round" stroke-linejoin="round" stroke-miterlimit="10" fill="none"/>
    <path id="Path_12" data-name="Path 12" d="M364.8,233.5H340.5c-4.3-10.3-4.6-11.1-8.8-21.4l17.2-17.2L317,163.1l-17.2,17.2c-10.3-4.3-11.1-4.6-21.4-8.8V147.2h-45v24.3c-10.3,4.3-11.1,4.6-21.4,8.8l-17-17.2L163.1,195l17.2,17.2c-4.3,10.3-4.6,11.1-8.8,21.4H147.2v45h24.3c4.3,10.3,4.6,11.1,8.8,21.4l-17.2,17,31.8,31.8,17.2-17.2c10.3,4.3,11.1,4.6,21.4,8.8v24.3h45V340.4c10.3-4.3,11.1-4.6,21.4-8.8l17.2,17.2L348.9,317l-17.2-17.2c4.3-10.3,4.6-11.1,8.8-21.4h24.3V233.5Z" fill="none" stroke="#000" stroke-linecap="round" stroke-linejoin="round" stroke-miterlimit="10" stroke-width="10"/>
  </g>
</svg>
